<?xml version="1.0" encoding="UTF-8" standalone="no"?>
<!-- Created with Inkscape (http://www.inkscape.org/) -->

<svg
   width="210mm"
   height="297mm"
   viewBox="0 0 210 297"
   version="1.1"
   id="svg1"
   xml:space="preserve"
   inkscape:version="1.3.2 (091e20e, 2023-11-25, custom)"
   sodipodi:docname="marcadores.svg"
   xmlns:inkscape="http://www.inkscape.org/namespaces/inkscape"
   xmlns:sodipodi="http://sodipodi.sourceforge.net/DTD/sodipodi-0.dtd"
   xmlns="http://www.w3.org/2000/svg"
   xmlns:svg="http://www.w3.org/2000/svg"><sodipodi:namedview
     id="namedview1"
     pagecolor="#ffffff"
     bordercolor="#000000"
     borderopacity="0.25"
     inkscape:showpageshadow="2"
     inkscape:pageopacity="0.0"
     inkscape:pagecheckerboard="0"
     inkscape:deskcolor="#d1d1d1"
     inkscape:document-units="mm"
     showguides="true"
     inkscape:export-bgcolor="#ffffff00"
     inkscape:zoom="0.6"
     inkscape:cx="705"
     inkscape:cy="274.16667"
     inkscape:window-width="1366"
     inkscape:window-height="705"
     inkscape:window-x="-8"
     inkscape:window-y="-8"
     inkscape:window-maximized="1"
     inkscape:current-layer="layer1"><sodipodi:guide
       position="92.532636,205.16136"
       orientation="0,-1"
       id="guide3"
       inkscape:locked="false" /><sodipodi:guide
       position="85.361356,227.3692"
       orientation="0,-1"
       id="guide4"
       inkscape:locked="false" /><sodipodi:guide
       position="99.00992,235.00314"
       orientation="0,-1"
       id="guide5"
       inkscape:locked="false" /><sodipodi:guide
       position="101.0919,180.87154"
       orientation="0,-1"
       id="guide6"
       inkscape:locked="false" /></sodipodi:namedview><defs
     id="defs1" /><g
     inkscape:label="Capa 1"
     inkscape:groupmode="layer"
     id="layer1"><path
       style="fill:#000000;opacity:1"
       id="path2"
       inkscape:label="path2" /><ellipse
       style="fill:#ffffff;fill-opacity:1;stroke-width:0.793478;paint-order:markers fill stroke"
       id="path8"
       cx="50.932289"
       cy="80.036461"
       rx="16.095484"
       ry="16.095486"
       inkscape:export-filename="marker_home.png"
       inkscape:export-xdpi="96"
       inkscape:export-ydpi="96" /><path
       style="fill:#ffcc00;fill-opacity:1;stroke-width:0.595221"
       d="M 101.56063,102.27364 C 92.121119,87.242275 92.484379,87.846151 91.869079,86.16243 c -4.71695,-12.907532 5.46144,-26.206553 19.162351,-25.037413 14.08093,1.201562 21.92836,17.174187 14.12237,28.744613 -0.34345,0.509087 -3.97508,6.276182 -8.0703,12.81578 -4.0952,6.53959 -7.49248,11.94184 -7.5495,12.005 -0.057,0.0632 -3.64504,-5.52439 -7.97337,-12.41677 z"
       id="path3-8"
       sodipodi:nodetypes="ssssscs"
       inkscape:export-filename="marker_pend.png"
       inkscape:export-xdpi="96"
       inkscape:export-ydpi="96" /><path
       style="fill:#000000"
       id="path1" /><path
       style="fill:#004998;fill-opacity:1;stroke-width:0.595221"
       d="M 42.895085,102.52237 C 33.45558,87.491005 33.818834,88.094881 33.203535,86.41116 28.486589,73.503628 38.664973,60.204607 52.365881,61.373747 c 14.080932,1.201562 21.928361,17.174187 14.122371,28.744613 -0.343453,0.509087 -3.975083,6.276182 -8.07029,12.81578 -4.095208,6.53959 -7.492486,11.94184 -7.549508,12.005 -0.05702,0.0632 -3.645038,-5.52439 -7.973369,-12.41677 z m 5.910304,-15.100571 v -3.385941 h 2.047313 2.047314 v 3.385941 3.385941 h 2.913485 2.913485 v -5.512001 -5.511995 h 1.089519 c 2.329993,0 2.380649,0.08219 -3.688019,-5.984446 l -5.275756,-5.273995 -5.128107,5.117393 c -6.331347,6.318115 -6.222971,6.141048 -3.758612,6.141048 h 1.169894 v 5.511995 5.512001 h 2.834741 2.834743 z"
       id="path3"
       inkscape:export-filename="marker_home.png"
       inkscape:export-xdpi="96"
       inkscape:export-ydpi="96" /><circle
       style="fill:#ffffff;fill-opacity:1;stroke-width:1.21664;paint-order:markers fill stroke"
       id="path6"
       cx="109.46886"
       cy="79.711014"
       r="11.160137" /><text
       xml:space="preserve"
       style="font-size:25.521px;fill:#ffcc00;fill-opacity:1;stroke-width:2.12675"
       x="95.849716"
       y="94.902908"
       id="text4"
       transform="scale(1.1037737,0.90598282)"><tspan
         sodipodi:role="line"
         id="tspan4"
         style="font-style:normal;font-variant:normal;font-weight:normal;font-stretch:normal;font-family:'Bernard MT Condensed';-inkscape-font-specification:'Bernard MT Condensed, ';fill:#ffcc00;fill-opacity:1;stroke-width:2.12675"
         x="95.849716"
         y="94.902908">ยก</tspan></text><path
       style="fill:#ff3300;fill-opacity:1;stroke-width:0.595221"
       d="m 112.81444,162.22327 c -9.43951,-15.03137 -9.07625,-14.42749 -9.69155,-16.11121 -4.716949,-12.90753 5.46144,-26.20655 19.16235,-25.03741 14.08093,1.20156 21.92836,17.17418 14.12237,28.74461 -0.34345,0.50909 -3.97508,6.27618 -8.0703,12.81578 -4.0952,6.53958 -7.49248,11.94183 -7.5495,12.00499 -0.057,0.0632 -3.64504,-5.52439 -7.97337,-12.41676 z"
       id="path3-8-19"
       sodipodi:nodetypes="ssssscs"
       inkscape:export-filename="marker_error.png"
       inkscape:export-xdpi="96"
       inkscape:export-ydpi="96" /><circle
       style="fill:#ffffff;fill-opacity:1;stroke-width:1.21664;paint-order:markers fill stroke"
       id="path6-2"
       cx="120.72267"
       cy="139.66064"
       r="11.160137" /><text
       xml:space="preserve"
       style="font-size:25.521px;fill:#ff3300;fill-opacity:1;stroke-width:2.12675"
       x="-112.69988"
       y="-146.6434"
       id="text4-0"
       transform="scale(-1.1037737,-0.90598282)"><tspan
         sodipodi:role="line"
         id="tspan4-4"
         style="font-style:normal;font-variant:normal;font-weight:normal;font-stretch:normal;font-family:'Bernard MT Condensed';-inkscape-font-specification:'Bernard MT Condensed, ';fill:#ff3300;fill-opacity:1;stroke-width:2.12675"
         x="-112.69988"
         y="-146.6434">ยก</tspan></text><path
       style="fill:#009900;fill-opacity:1;stroke-width:0.595221"
       d="m 153.63567,102.49705 c -9.43951,-15.031363 -9.07625,-14.427493 -9.69155,-16.111213 -4.71695,-12.90753 5.46144,-26.20655 19.16235,-25.03741 14.08093,1.201562 21.92836,17.17419 14.12237,28.74461 -0.34345,0.50909 -3.97508,6.27619 -8.0703,12.815783 -4.0952,6.53959 -7.49248,11.94184 -7.5495,12.005 -0.057,0.0632 -3.64504,-5.52439 -7.97337,-12.41677 z"
       id="path3-8-1"
       sodipodi:nodetypes="ssssscs"
       inkscape:export-filename="marker_ok.png"
       inkscape:export-xdpi="96"
       inkscape:export-ydpi="96" /><circle
       style="fill:#ffffff;fill-opacity:1;stroke-width:1.21664;paint-order:markers fill stroke"
       id="path6-7"
       cx="161.5439"
       cy="79.934425"
       r="11.160137" /><path
       style="fill:#009900;fill-opacity:1;stroke-width:0.264583;paint-order:markers fill stroke"
       d="m 153.64611,72.76402 c 5.28418,5.848973 6.06004,11.292546 7.17191,16.599206 4.66984,-2.106133 10.11892,-10.716715 10.11892,-10.716715 -2.94,2.052978 -6.67921,4.235494 -8.82001,6.158933 -0.004,-3.124267 -2.92574,-7.936361 -8.47082,-12.041424 z"
       id="path7"
       sodipodi:nodetypes="ccccc" /></g></svg>
